<?xml version="1.0" encoding="UTF-8" standalone="no"?>
<!-- Created with Inkscape (http://www.inkscape.org/) -->

<svg
   width="88.738014mm"
   height="79.839752mm"
   viewBox="0 0 88.738014 79.839751"
   version="1.1"
   id="svg1"
   inkscape:version="1.3.2 (091e20e, 2023-11-25, custom)"
   sodipodi:docname="eggbasketicon.svg"
   inkscape:export-filename="..\emptyBasket.png"
   inkscape:export-xdpi="96"
   inkscape:export-ydpi="96"
   xmlns:inkscape="http://www.inkscape.org/namespaces/inkscape"
   xmlns:sodipodi="http://sodipodi.sourceforge.net/DTD/sodipodi-0.dtd"
   xmlns="http://www.w3.org/2000/svg"
   xmlns:svg="http://www.w3.org/2000/svg">
  <sodipodi:namedview
     id="namedview1"
     pagecolor="#505050"
     bordercolor="#ffffff"
     borderopacity="1"
     inkscape:showpageshadow="0"
     inkscape:pageopacity="0"
     inkscape:pagecheckerboard="1"
     inkscape:deskcolor="#505050"
     inkscape:document-units="mm"
     inkscape:zoom="0.73406286"
     inkscape:cx="81.055729"
     inkscape:cy="177.09655"
     inkscape:window-width="1920"
     inkscape:window-height="1001"
     inkscape:window-x="-9"
     inkscape:window-y="-9"
     inkscape:window-maximized="1"
     inkscape:current-layer="g1" />
  <defs
     id="defs1" />
  <g
     inkscape:label="Layer 1"
     inkscape:groupmode="layer"
     id="layer1"
     transform="translate(-57.954883,-98.779119)">
    <path
       d="m 69.1024,153.47508 a 5.7062919,4.926813 0 0 1 -4.661196,3.80398 37.902624,25.362848 0 0 0 18.41523,17.94182 37.902624,25.362848 0 0 0 37.902676,0 37.902624,25.362848 0 0 0 18.44934,-18.05627 5.7062919,4.926813 0 0 1 -3.82438,-3.68953 5.7062919,4.926813 0 0 1 -5.52482,3.93653 5.7062919,4.926813 0 0 1 -5.52335,-3.92939 5.7062919,4.926813 0 0 1 -5.52286,3.92939 5.7062919,4.926813 0 0 1 -5.52287,-3.92939 5.7062919,4.926813 0 0 1 -5.52383,3.92939 5.7062919,4.926813 0 0 1 -5.52287,-3.92939 5.7062919,4.926813 0 0 1 -5.523347,3.92939 5.7062919,4.926813 0 0 1 -5.523348,-3.92812 5.7062919,4.926813 0 0 1 -5.523349,3.92812 5.7062919,4.926813 0 0 1 -5.52335,-3.92939 5.7062919,4.926813 0 0 1 -5.522864,3.92939 5.7062919,4.926813 0 0 1 -5.524812,-3.93653 z"
       style="fill:#ffffff;fill-opacity:1;stroke:#ffffff;stroke-width:0;stroke-linejoin:round;stroke-miterlimit:2.8;stroke-opacity:0.987152"
       id="path16"
       inkscape:label="Basket" />
    <g
       id="g12"
       transform="matrix(1.0733287,0,0,1.1380663,-28.868854,13.326668)"
       style="display:inline;fill:#ffffff;fill-opacity:1"
       inkscape:label="Fluff">
      <circle
         style="fill:#ffffff;fill-opacity:1;stroke:#904810;stroke-width:0;stroke-linejoin:round;stroke-miterlimit:2.8;stroke-dasharray:none;stroke-opacity:1"
         id="circle5"
         cx="86.208473"
         cy="118.35075"
         r="5.3164439"
         inkscape:label="circle5" />
      <circle
         style="fill:#ffffff;fill-opacity:1;stroke:#904810;stroke-width:0;stroke-linejoin:round;stroke-miterlimit:2.8;stroke-dasharray:none;stroke-opacity:1"
         id="circle6"
         cx="96.500282"
         cy="118.36621"
         r="5.3164439" />
      <circle
         style="fill:#ffffff;fill-opacity:1;stroke:#904810;stroke-width:0;stroke-linejoin:round;stroke-miterlimit:2.8;stroke-dasharray:none;stroke-opacity:1"
         id="circle7"
         cx="106.79208"
         cy="118.36621"
         r="5.3164439" />
      <circle
         style="fill:#ffffff;fill-opacity:1;stroke:#904810;stroke-width:0;stroke-linejoin:round;stroke-miterlimit:2.8;stroke-dasharray:none;stroke-opacity:1"
         id="circle8"
         cx="117.08389"
         cy="118.36621"
         r="5.3164439" />
      <circle
         style="fill:#ffffff;fill-opacity:1;stroke:#904810;stroke-width:0;stroke-linejoin:round;stroke-miterlimit:2.8;stroke-dasharray:none;stroke-opacity:1"
         id="circle9"
         cx="127.37569"
         cy="118.36621"
         r="5.3164439" />
      <circle
         style="fill:#ffffff;fill-opacity:1;stroke:#904810;stroke-width:0;stroke-linejoin:round;stroke-miterlimit:2.8;stroke-dasharray:none;stroke-opacity:1"
         id="circle10"
         cx="137.6675"
         cy="118.36621"
         r="5.3164439" />
      <circle
         style="fill:#ffffff;fill-opacity:1;stroke:#904810;stroke-width:0;stroke-linejoin:round;stroke-miterlimit:2.8;stroke-dasharray:none;stroke-opacity:1"
         id="circle11"
         cx="147.9593"
         cy="118.36621"
         r="5.3164439" />
      <circle
         style="fill:#ffffff;fill-opacity:1;stroke:#904810;stroke-width:0;stroke-linejoin:round;stroke-miterlimit:2.8;stroke-dasharray:none;stroke-opacity:1"
         id="circle12"
         cx="158.25111"
         cy="118.35075"
         r="5.3164439" />
    </g>
    <g
       id="g1"
       inkscape:label="Eggs">
      <path
         d="m 74.866231,119.76528 a 18.472391,13.065838 44.271392 0 0 -7.296195,3.02462 18.472391,13.065838 44.271392 0 0 2.074292,19.97295 5.7062918,6.0504657 0 0 1 5.063257,-3.42408 5.7062918,6.0504657 0 0 1 5.549532,4.65242 5.7062918,6.0504657 0 0 1 5.496822,-4.65242 5.7062918,6.0504657 0 0 1 5.549532,4.65242 5.7062918,6.0504657 0 0 1 5.463749,-4.64674 18.472391,13.065838 44.271392 0 0 -6.849711,-13.01574 18.472391,13.065838 44.271392 0 0 -15.051278,-6.56343 z"
         style="display:inline;fill:#ffffff;stroke:#904810;stroke-width:0;stroke-linejoin:round;stroke-miterlimit:2.8"
         id="path18"
         inkscape:label="Left Egg" />
      <path
         d="m 129.9161,117.81605 a 13.065838,18.472391 26.145069 0 0 -14.76034,11.7662 13.065838,18.472391 26.145069 0 0 -2.36316,12.80646 5.7062918,6.0504657 0 0 1 0.60358,1.60248 5.7062918,6.0504657 0 0 1 5.49734,-4.65242 5.7062918,6.0504657 0 0 1 5.54953,4.65242 5.7062918,6.0504657 0 0 1 5.49682,-4.65242 5.7062918,6.0504657 0 0 1 5.54747,4.64622 5.7062918,6.0504657 0 0 1 3.79305,-4.37751 13.065838,18.472391 26.145069 0 0 -4.25607,-20.8504 13.065838,18.472391 26.145069 0 0 -5.10822,-0.94103 z"
         style="display:inline;fill:#ffffff;stroke:#904810;stroke-width:0;stroke-linejoin:round;stroke-miterlimit:2.8"
         id="path25"
         inkscape:label="Right Egg" />
      <path
         d="m 111.9358,106.82914 a 13.065838,18.472391 16.561533 0 0 -15.244544,14.36811 13.065838,18.472391 16.561533 0 0 -0.733289,10.44588 18.472391,13.065838 44.271392 0 1 2.240173,6.31227 13.065838,18.472391 16.561533 0 0 4.97179,4.31705 5.7062918,6.0504657 0 0 1 4.67723,-2.62051 5.7062918,6.0504657 0 0 1 3.36827,1.17616 5.7062918,6.0504657 0 0 0 -0.0103,-0.0269 13.065838,18.472391 26.145069 0 1 2.36316,-12.80645 13.065838,18.472391 26.145069 0 1 8.96638,-9.88932 13.065838,18.472391 16.561533 0 0 -8.05429,-10.89029 13.065838,18.472391 16.561533 0 0 -2.54455,-0.38602 z"
         style="display:inline;fill:#ffffff;stroke:#904810;stroke-width:0;stroke-linejoin:round;stroke-miterlimit:2.8"
         id="path35"
         inkscape:label="Middle Egg" />
      <path
         d="m 87.643746,98.790349 a 18.472391,13.065838 74.518955 0 0 -2.030367,0.326077 18.472391,13.065838 74.518955 0 0 -8.315772,18.087784 18.472391,13.065838 44.271392 0 1 13.149068,6.47867 18.472391,13.065838 44.271392 0 1 3.874699,4.82503 13.065838,18.472391 16.561533 0 1 0.782381,-9.9565 13.065838,18.472391 16.561533 0 1 6.010485,-10.19834 18.472391,13.065838 74.518955 0 0 -13.470494,-9.562721 z"
         style="display:inline;fill:#ffffff;stroke:#904810;stroke-width:0;stroke-linejoin:round;stroke-miterlimit:2.8"
         id="path38"
         inkscape:label="Top Egg" />
    </g>
  </g>
</svg>
