<?xml version="1.0" encoding="UTF-8" standalone="no"?>
<!-- Created with Inkscape (http://www.inkscape.org/) -->

<svg
   width="85.781975mm"
   height="179.7068mm"
   viewBox="0 0 85.781975 179.7068"
   version="1.1"
   id="svg1"
   inkscape:version="1.3.2 (091e20e, 2023-11-25, custom)"
   sodipodi:docname="scientist.svg"
   inkscape:export-filename="..\scientist.png"
   inkscape:export-xdpi="96"
   inkscape:export-ydpi="96"
   xmlns:inkscape="http://www.inkscape.org/namespaces/inkscape"
   xmlns:sodipodi="http://sodipodi.sourceforge.net/DTD/sodipodi-0.dtd"
   xmlns="http://www.w3.org/2000/svg"
   xmlns:svg="http://www.w3.org/2000/svg">
  <sodipodi:namedview
     id="namedview1"
     pagecolor="#000000"
     bordercolor="#ffffff"
     borderopacity="1"
     inkscape:showpageshadow="0"
     inkscape:pageopacity="0"
     inkscape:pagecheckerboard="1"
     inkscape:deskcolor="#505050"
     inkscape:document-units="mm"
     inkscape:zoom="0.73406282"
     inkscape:cx="21.115359"
     inkscape:cy="355.5554"
     inkscape:window-width="1920"
     inkscape:window-height="1001"
     inkscape:window-x="-9"
     inkscape:window-y="-9"
     inkscape:window-maximized="1"
     inkscape:current-layer="layer1" />
  <defs
     id="defs1" />
  <g
     inkscape:label="Layer 1"
     inkscape:groupmode="layer"
     id="layer1"
     transform="translate(-79.443668,-38.357538)">
    <path
       d="m 136.42837,138.97353 c -3.26024,2.8463 -10.10483,4.66173 -17.62839,4.67568 -6.11962,-0.0136 -11.87501,-1.22288 -15.56856,-3.27112 l -2.48925,0.10542 -7.749462,62.99981 -13.54904,-1.27228 17.16639,11.6458 5.393472,-2.61431 -0.18035,4.90823 3.60443,1.91358 17.48117,-56.32176 11.76569,17.35036 -16.40004,14.39861 1.8924,3.28094 3.24373,-1.09348 -1.44178,4.37441 12.52534,12.02924 -3.0639,-10.75335 25.95156,-16.76848 -13.5673,-45.89994 z"
       style="fill:#000000;fill-opacity:1;stroke:#ffffff;stroke-width:0;stroke-linecap:round;stroke-linejoin:round;stroke-miterlimit:2.8"
       id="path14"
       inkscape:label="Legs"
       sodipodi:nodetypes="ccccccccccccccccccccc" />
    <rect
       style="fill:#70b0e8;fill-opacity:1;stroke:#ffffff;stroke-width:0;stroke-linecap:round;stroke-linejoin:round;stroke-miterlimit:2.8"
       id="rect1"
       width="45.955704"
       height="61.274277"
       x="100.905"
       y="83.801575" />
    <g
       id="g18"
       transform="matrix(1.1709087,0,0,1.3521589,-21.973072,-19.021886)">
      <circle
         style="fill:#000000;fill-opacity:1;stroke:#ffffff;stroke-width:0;stroke-linecap:round;stroke-linejoin:round;stroke-miterlimit:2.8"
         id="path3"
         cx="124.31156"
         cy="50.145153"
         r="7.7097383" />
      <circle
         style="fill:#000000;fill-opacity:1;stroke:#ffffff;stroke-width:0;stroke-linecap:round;stroke-linejoin:round;stroke-miterlimit:2.8"
         id="circle3"
         cx="133.86909"
         cy="53.968163"
         r="7.7097383" />
      <circle
         style="fill:#000000;fill-opacity:1;stroke:#ffffff;stroke-width:0;stroke-linecap:round;stroke-linejoin:round;stroke-miterlimit:2.8"
         id="circle4"
         cx="141.13281"
         cy="63.398254"
         r="8.2194729" />
      <circle
         style="fill:#000000;fill-opacity:1;stroke:#ffffff;stroke-width:0;stroke-linecap:round;stroke-linejoin:round;stroke-miterlimit:2.8"
         id="circle5"
         cx="112.14165"
         cy="54.923912"
         r="8.6654911" />
      <circle
         style="fill:#000000;fill-opacity:1;stroke:#ffffff;stroke-width:0;stroke-linecap:round;stroke-linejoin:round;stroke-miterlimit:2.8"
         id="circle6"
         cx="107.49031"
         cy="64.92746"
         r="7.7097383" />
      <circle
         style="fill:#000000;fill-opacity:1;stroke:#ffffff;stroke-width:0;stroke-linecap:round;stroke-linejoin:round;stroke-miterlimit:2.8"
         id="circle7"
         cx="140.55937"
         cy="56.325687"
         r="5.4796486" />
      <circle
         style="fill:#000000;fill-opacity:1;stroke:#ffffff;stroke-width:0;stroke-linecap:round;stroke-linejoin:round;stroke-miterlimit:2.8"
         id="circle8"
         cx="109.46555"
         cy="73.146935"
         r="5.4796486" />
      <circle
         style="fill:#000000;fill-opacity:1;stroke:#ffffff;stroke-width:0;stroke-linecap:round;stroke-linejoin:round;stroke-miterlimit:2.8"
         id="circle9"
         cx="140.3045"
         cy="73.911537"
         r="5.4796486" />
    </g>
    <circle
       style="fill:#000000;fill-opacity:1;stroke:#ffffff;stroke-width:0;stroke-linecap:round;stroke-linejoin:round;stroke-miterlimit:2.8"
       id="circle20"
       cx="124.49943"
       cy="76.893478"
       r="17.840717" />
    <circle
       style="fill:#a08038;fill-opacity:1;stroke:#ffffff;stroke-width:0;stroke-linecap:round;stroke-linejoin:round;stroke-miterlimit:2.8"
       id="path2"
       cx="123.88284"
       cy="67.897636"
       r="17.840717" />
    <path
       d="m 115.41281,60.622201 c -5.22571,-1.15e-4 -9.46213,1.815457 -9.46195,4.05505 4.9e-4,2.239391 4.23671,4.054648 9.46195,4.054533 3.60741,-0.0063 6.89262,-0.89116 8.47029,-2.281515 1.57758,1.390283 4.86254,2.275157 8.46976,2.281515 5.22525,1.15e-4 9.46147,-1.815142 9.46196,-4.054533 1.7e-4,-2.239593 -4.23624,-4.055165 -9.46196,-4.05505 -3.59239,0.006 -6.86696,0.883482 -8.45271,2.264978 -1.59128,-1.386283 -4.88245,-2.264582 -8.48734,-2.264978 z"
       style="fill:#70b0e8;stroke:#000000;stroke-width:1.5;stroke-linecap:round;stroke-linejoin:round;stroke-miterlimit:2.8;stroke-dasharray:none;stroke-opacity:1"
       id="path19" />
    <path
       style="display:inline;fill:#ffffff;fill-opacity:1;stroke:#ffffff;stroke-width:0;stroke-linecap:round;stroke-linejoin:round;stroke-miterlimit:2.8"
       d="m 139.00873,77.700477 10.88589,6.704604 15.33102,94.822409 -24.93396,8.92058 -11.25527,-106.482892 1.98431,-8.176187 14.80165,-0.283429 z"
       id="path20"
       sodipodi:nodetypes="cccccccc" />
    <path
       style="display:inline;fill:#ffffff;fill-opacity:1;stroke:#ffffff;stroke-width:0;stroke-linecap:round;stroke-linejoin:round;stroke-miterlimit:2.8"
       d="m 108.75696,77.700477 -10.885892,6.704604 -15.33102,94.822409 24.933962,8.92058 11.25527,-106.482892 -1.98431,-8.176187 -14.80165,-0.283429 z"
       id="path21"
       sodipodi:nodetypes="cccccccc" />
  </g>
</svg>
